<svg viewBox="0 0 40 40" xml:space="preserve" xmlns="http://www.w3.org/2000/svg" enable-background="new 0 0 40 40"><path d="M12.7 15.89c-.5-.01-.91.4-.92.9v.11c.05.51.51.87 1.01.82.43-.05.77-.39.82-.82v-.1c0-.5-.41-.91-.91-.91zM12.7 7.69c-1.73 0-3.13 1.4-3.14 3.13 0 .5.41.91.91.91s.91-.41.91-.91c.06-.73.7-1.26 1.43-1.2.64.06 1.14.56 1.2 1.2 0 .33-.15.63-.39.85-.15.14-.32.28-.49.4-.18.13-.35.27-.51.42-.56.53-.87 1.28-.84 2.06.05.51.51.87 1.01.82.43-.05.77-.39.82-.82-.03-.29.08-.58.3-.77.1-.09.2-.17.31-.25.22-.16.43-.34.63-.52.63-.55 1-1.35 1-2.19-.01-1.73-1.42-3.14-3.15-3.13z" fill="#383838" class="fill-000000"></path><path d="M34.58 16.28H23.39V7.43A3.44 3.44 0 0 0 20 4H5.42A3.433 3.433 0 0 0 2 7.43v9.45c0 1.89 1.53 3.42 3.42 3.43h4.9l2.21 3c.17.23.44.37.73.37.28 0 .55-.13.72-.35l2.35-3.06h.27v8.84c-.02 1.9 1.5 3.45 3.4 3.47h4.54l2.22 3c.18.23.44.36.73.38.28 0 .55-.14.72-.36l2.35-3.06h4A3.43 3.43 0 0 0 38 29.15V19.7c0-1.89-1.53-3.42-3.42-3.42zm-17.74 2.2h-.95c-.28 0-.55.14-.72.36l-1.88 2.45-1.78-2.43a.892.892 0 0 0-.73-.38H5.42c-.88 0-1.6-.72-1.6-1.6V7.43c0-.88.72-1.6 1.6-1.6H20c.88-.01 1.6.71 1.61 1.59v8.86H20c-1.4.02-2.65.89-3.16 2.2zm19.34 10.67c0 .89-.71 1.6-1.6 1.61h-4.42c-.28 0-.55.13-.72.35l-1.88 2.46-1.78-2.44a.91.91 0 0 0-.73-.37H20c-.89 0-1.61-.72-1.61-1.61V19.7c.01-.89.72-1.6 1.61-1.6h14.58c.88 0 1.6.72 1.6 1.6v9.45z" fill="#383838" class="fill-000000"></path><path d="M27.31 22.77c-.5 0-.91.41-.92.91v4c.05.51.51.87 1.01.82.43-.05.77-.39.82-.82v-4c0-.5-.41-.91-.91-.91zM27.31 20.25a1 1 0 0 0-1 .99c0 .55.45 1 1 1s1-.45 1-1-.45-1-1-1v.01z" fill="#383838" class="fill-000000"></path></svg>