<?xml version="1.0" ?><svg fill="none" height="24" viewBox="0 0 24 24" width="24" xmlns="http://www.w3.org/2000/svg"><path clip-rule="evenodd" d="M12 5C8.13401 5 5 8.13401 5 12C5 15.866 8.13401 19 12 19C15.866 19 19 15.866 19 12C19 8.13401 15.866 5 12 5ZM3 12C3 7.02944 7.02944 3 12 3C16.9706 3 21 7.02944 21 12C21 16.9706 16.9706 21 12 21C7.02944 21 3 16.9706 3 12ZM16.7071 8.29289C17.0976 8.68342 17.0976 9.31658 16.7071 9.70711L10.7071 15.7071C10.3166 16.0976 9.68342 16.0976 9.2929 15.7071L7.29289 13.7071C6.90237 13.3166 6.90237 12.6834 7.29289 12.2929C7.68341 11.9024 8.31658 11.9024 8.7071 12.2929L10 13.5858L15.2929 8.29289C15.6834 7.90237 16.3166 7.90237 16.7071 8.29289Z" fill="black" fill-rule="evenodd"/></svg>