<?xml version="1.0" ?><!DOCTYPE svg  PUBLIC '-//W3C//DTD SVG 1.1//EN'  'http://www.w3.org/Graphics/SVG/1.1/DTD/svg11.dtd'><svg height="16.6667in" style="shape-rendering:geometricPrecision; text-rendering:geometricPrecision; image-rendering:optimizeQuality; fill-rule:evenodd; clip-rule:evenodd" version="1.1" viewBox="0 0 16666.66 16666.66" width="16.6667in" xml:space="preserve" xmlns="http://www.w3.org/2000/svg" xmlns:xlink="http://www.w3.org/1999/xlink" xmlns:xodm="http://www.corel.com/coreldraw/odm/2003"><defs><style type="text/css">
   <![CDATA[
    .fil0 {fill:none}
    .fil8 {fill:#FEFEFE}
    .fil9 {fill:#F5875E}
    .fil2 {fill:#F5AD7E}
    .fil6 {fill:#F2937B}
    .fil3 {fill:#D79671}
    .fil14 {fill:#A5AAAB}
    .fil12 {fill:#764D3B}
    .fil11 {fill:#5D3B2F}
    .fil7 {fill:#49332C}
    .fil5 {fill:#2D2E2F}
    .fil1 {fill:#4F7394}
    .fil10 {fill:#46587C}
    .fil4 {fill:#3C3E65}
    .fil13 {fill:#2F314D}
   ]]>
  </style></defs><g id="Layer_x0020_1"><rect class="fil0" height="16666.66" width="16666.66" x="-0" y="-0"/><g id="_2100819779264"><path class="fil1" d="M8333.32 15790.43c3123.03,0 5670.18,-2547.05 5670.18,-5670.16 0,-3123.01 -2547.15,-5670.07 -5670.18,-5670.07 -3123,0 -5670.16,2547.07 -5670.16,5670.07 0,3123.11 2547.15,5670.16 5670.16,5670.16z"/><path class="fil2" d="M5428.79 6798.42c-12.87,-141.09 -589.93,-307.74 -782.14,153.89 -192.38,461.61 153.78,1115.59 807.7,1166.82 654.07,51.29 461.69,-64 461.69,-64l-487.25 -1256.71z"/><path class="fil2" d="M11251.77 6798.42c12.87,-141.09 589.85,-307.74 782.22,153.89 192.3,461.61 -153.86,1115.59 -807.87,1166.82 -653.92,51.29 -461.61,-64 -461.61,-64l487.25 -1256.71z"/><path class="fil2" d="M8333.32 15790.43l-5276.48 0c-61.11,-2698.19 2014.83,-4264.48 3797.45,-4848.99 144.51,-752.83 107.63,-1729.23 107.63,-1729.23l2742.79 0c0,0 -36.87,976.4 107.72,1729.23 1782.54,584.52 3858.56,2150.8 3797.52,4848.99l-5276.63 0z"/><path class="fil3" d="M9704.72 9212.21c0,0 -7.29,193.65 -2.59,474.69 -521.03,1308.82 -2138.39,1456.06 -2738.65,54.43 6.62,-310.28 -1.56,-529.12 -1.56,-529.12 913.58,0 1829.23,0 2742.79,0z"/><path class="fil4" d="M13789.78 15790.43c62.37,-2664.5 -2030.44,-4225.16 -3857.95,-4826.44 -365.88,811.66 -2820.4,808.08 -3182.28,-4.83 -1830.92,597.87 -3935.26,2159.63 -3872.68,4831.27l10912.9 0z"/><path class="fil1" d="M9704.43 11230.47c-621.88,458.85 -2135.93,453.07 -2742.06,-14.52l0 234.25 321.13 4340.23 2099.66 0 321.28 -4340.23 0 -219.73z"/><path class="fil2" d="M8333.32 9907.6c-3402.51,81.69 -5120.45,-8308.88 0,-8093.92 5120.39,-214.97 3402.66,8175.61 0,8093.92z"/><path class="fil5" d="M7190.13 5857.8c136.71,98.55 167.35,289.07 68.54,425.32 -98.72,136.27 -289.54,166.89 -426.17,68.4 -136.54,-98.49 -167.24,-288.93 -68.46,-425.34 98.72,-136.25 289.46,-166.89 426.08,-68.38z"/><path class="fil5" d="M9495.4 5857.8c-136.56,98.55 -167.18,289.07 -68.54,425.32 98.8,136.27 289.68,166.89 426.25,68.4 136.54,-98.49 167.24,-288.93 68.52,-425.34 -98.78,-136.25 -289.52,-166.89 -426.23,-68.38z"/><path class="fil6" d="M6814.39 6964.04c173.63,133.36 181.21,328.63 16.85,436.11 -164.27,107.5 -438.26,86.6 -611.91,-46.67 -173.65,-133.36 -181.32,-328.56 -17.03,-436.13 164.35,-107.48 438.35,-86.58 612.08,46.69z"/><path class="fil6" d="M9871.31 6964.04c-173.65,133.36 -181.3,328.63 -17.02,436.11 164.35,107.5 438.34,86.6 611.99,-46.67 173.65,-133.36 181.3,-328.56 16.96,-436.13 -164.29,-107.48 -438.28,-86.58 -611.93,46.69z"/><path class="fil7" d="M7323.42 5030.29c-11.38,-4.97 -22.67,-9.59 -34.35,-14.04 -132.92,-47.96 -245.67,-60.96 -389.29,-50.55 -140.72,14.85 -245.76,46.67 -363.56,113.95 -55.08,35.44 -269.93,209.39 -209.03,273.55 24.89,6.85 238.91,-102.43 301.72,-122.87 97.81,-28.93 177.12,-39.85 280.69,-37.78 96.55,4.32 169.24,18.44 257.26,52.34 2.38,0.53 18.37,7.65 21.7,9.15 179.44,87.28 163.24,143.3 285.6,59.4 188.52,-100.36 -5.56,-207.61 -150.74,-283.15z"/><path class="fil7" d="M9343.25 5030.29c11.36,-4.97 22.67,-9.59 34.33,-14.04 132.92,-47.96 245.75,-60.96 389.29,-50.55 140.71,14.85 245.75,46.67 363.58,113.95 55.08,35.44 269.9,209.39 208.94,273.55 -24.74,6.85 -238.76,-102.43 -301.63,-122.87 -97.83,-28.93 -177.15,-39.85 -280.63,-37.78 -96.55,4.32 -169.26,18.44 -257.26,52.34 -2.46,0.53 -18.37,7.65 -21.72,9.15 -179.44,87.28 -163.3,143.3 -285.57,59.4 -188.44,-100.36 5.5,-207.61 150.68,-283.15z"/><path class="fil8" d="M7450.76 7676.01c313.54,-3.94 625.96,-5.88 938.41,-5.88 312.43,0 624.85,1.94 938.39,5.88 0,492.02 -485.25,667.75 -936.68,667.75l-3.35 0c-451.58,0 -936.76,-175.73 -936.76,-667.75z"/><path class="fil9" d="M8173.44 8636.86c-17.56,-10.18 -23.41,-32.79 -13.15,-50.26 10.32,-17.47 32.76,-23.33 50.38,-13.15 50.55,29.73 115.3,44.59 179.97,44.59 64.52,0 128.01,-14.79 176.7,-44.29 17.32,-10.47 39.91,-4.91 50.32,12.41 10.56,17.32 5.06,39.93 -12.35,50.46 -60.64,36.81 -137.66,55.17 -214.67,55.17 -76.87,0 -154.69,-18.29 -217.2,-54.93z"/><path class="fil9" d="M8305.6 7000.83c-20.44,0 -36.94,-16.59 -36.94,-36.88 0,-20.44 16.5,-36.85 36.94,-36.85 88.54,0 194.23,-0.91 276.01,-14.73 67.13,-11.44 116.48,-29.58 116.48,-60.28 0,-106.07 -107.48,-765.79 -107.78,-767.65 -3.2,-20.08 10.56,-38.87 30.56,-41.99 20.06,-3.29 38.94,10.47 42.14,30.47 0.3,1.94 108.9,668.57 108.9,779.17 0,77.84 -75.52,115.51 -178.26,132.92 -87.99,14.94 -197.06,15.83 -288.04,15.83z"/><path class="fil9" d="M11824.82 7316.6c0,20.44 -16.58,36.94 -36.94,36.94 -20.46,0 -36.87,-16.5 -36.87,-36.94 0,-112.02 -19.41,-182.5 -50.55,-220.85 -18.73,-22.89 -42.37,-33.52 -68.69,-34.11 -30.09,-0.68 -64.58,10.62 -100.34,30.91 -96.87,54.79 -197.06,171.12 -252.46,297.8 -26.67,61.02 -49.64,123.69 -62.87,171.12 56.64,-39.41 119.16,-55.08 171.85,-49.81 29.96,3.06 57.25,12.71 79.46,28.7 23.5,16.79 40.9,40.2 49.58,69.49 15.02,50.55 3.5,118.57 -50.91,199.67 -11.3,16.88 -34.11,21.33 -50.99,10.11 -16.8,-11.31 -21.41,-34.2 -10.11,-51.07 40.58,-60.52 50.61,-106.6 41.41,-137.59 -3.86,-13.15 -11.59,-23.56 -21.85,-30.91 -11.53,-8.34 -26.61,-13.46 -43.79,-15.17 -47.28,-4.83 -107.34,15.91 -157.21,66.16 -13.46,13.44 -25.94,21.03 -37.55,23.47 -29.59,6.41 -46.82,-6.61 -53.29,-35.59l-0.38 -1.94c-2.24,-11 -1.71,-25.64 1.11,-43.05 8.18,-52.47 39.7,-145.33 78.2,-232.96 61.4,-140.56 173.94,-270.43 283.45,-332.42 46.97,-26.53 94.25,-41.41 138.19,-40.44 47.87,1.18 90.69,20.06 124.22,61.32 41.47,50.93 67.34,136.92 67.34,267.16z"/><path class="fil9" d="M4915.72 7316.6c0,20.44 -16.58,36.94 -36.87,36.94 -20.44,0 -36.94,-16.5 -36.94,-36.94 0,-130.24 25.79,-216.23 67.28,-267.16 33.44,-41.26 76.34,-60.14 124.21,-61.32 43.91,-0.97 91.2,13.91 138.25,40.44 109.51,61.99 221.96,191.85 283.37,332.42 38.44,87.64 69.87,180.5 78.2,232.96 2.76,17.41 3.29,32.05 1.2,43.05l-0.53 1.94c-6.47,28.97 -23.56,42 -53.22,35.59 -11.53,-2.44 -24.09,-10.03 -37.53,-23.47 -49.88,-50.25 -109.87,-70.99 -157.24,-66.16 -17.17,1.7 -32.26,6.83 -43.7,15.17 -10.32,7.35 -17.99,17.76 -21.93,30.91 -9.3,31 0.82,77.08 41.41,137.59 11.31,16.88 6.85,39.76 -10.18,51.07 -16.73,11.21 -39.61,6.76 -50.91,-10.11 -54.43,-81.1 -65.95,-149.12 -50.93,-199.67 8.7,-29.29 26.17,-52.7 49.58,-69.49 22.23,-15.99 49.52,-25.65 79.4,-28.7 52.76,-5.27 115.28,10.41 172,49.81 -13.23,-47.43 -36.28,-110.1 -62.96,-171.12 -55.46,-126.68 -155.59,-243.01 -252.28,-297.8 -35.91,-20.29 -70.48,-31.59 -100.51,-30.91 -26.23,0.59 -49.96,11.23 -68.69,34.11 -31.2,38.35 -50.46,108.83 -50.46,220.85z"/><path class="fil7" d="M5461.4 7321.36c-236.38,-458.43 -459.81,-1351.63 -491.93,-2173.53 -28.4,-726.33 107.55,-1386.28 304.1,-1795.41 569.55,-1184.67 1865.7,-1874.85 3009.2,-1842.45 16.88,-0.44 33.76,-0.59 50.55,-0.82 16.88,0.23 33.67,0.38 50.49,0.82 1143.62,-32.41 2439.73,657.78 3009.2,1842.45 196.76,409.14 332.42,1069.09 304.1,1795.41 -32.11,821.9 -255.41,1715.11 -491.87,2173.53 80.2,-1047.15 -154.91,-1502.08 -392.26,-1742.04 -527.71,-600.38 -430.25,-1026.11 -404.99,-1192.91 21.87,-144.15 661.59,-651.48 603.37,-838.42 -189.77,-609.26 -2070.5,78.93 -2574.42,78.93 -17.85,0 -35.61,-0.36 -53.14,-0.95 -16.73,0.59 -33.46,0.89 -50.49,0.95 -16.94,-0.06 -33.82,-0.36 -50.55,-0.95 -17.53,0.59 -35.15,0.95 -53,0.95 -504.07,0 -2384.65,-688.19 -2574.44,-78.93 -58.2,186.94 581.37,694.28 603.31,838.42 25.26,166.8 122.72,592.52 -404.91,1192.91 -237.43,239.96 -472.54,694.89 -392.35,1742.04z"/><path class="fil10" d="M6937.34 10470.9c-283.51,-215.18 -1565.65,3311.47 -1283.32,3060.45 223.3,-198.56 892.3,-1138.37 1488.62,83.76 -117.51,-1135.82 -132.3,-2607.71 -205.3,-3144.2z"/><path class="fil10" d="M9729.34 10470.9c283.51,-215.18 1565.63,3311.47 1283.3,3060.45 -223.29,-198.56 -892.39,-1138.37 -1488.54,83.76 117.45,-1135.82 132.31,-2607.71 205.24,-3144.2z"/><path class="fil11" d="M5591.05 3596.61c362.15,483.54 1007.31,661.8 2059.82,795.37 986.7,125.27 2169.89,-3.71 2950.92,-393.44 1202.96,-600.26 1090.56,-2271.96 965.4,-2212.12 -1476.06,706.54 -1987.94,-449.57 -3046.98,-772.79 -801.7,-244.78 -1879.91,-252.37 -2739.39,741.7 -476.25,550.97 -606.34,1285.18 -189.77,1841.27z"/><path class="fil12" d="M6203.57 3225.52c-14.06,-14.7 -13.46,-37.97 1.26,-52.02 14.8,-14.06 37.97,-13.46 52.03,1.26 197.2,207.85 693.24,428.31 1342.7,529.41 514.41,80.2 1123.79,84.58 1755.95,-52.04 1183.7,-255.93 1815.48,-1192.55 1997.51,-1506.68 -1513,762.74 -2576.21,579.44 -3487.03,421.99 -613.78,-106.01 -1157.46,-199.88 -1719.87,22.82 -18.96,7.5 -40.29,-1.79 -47.72,-20.74 -7.5,-18.96 1.79,-40.37 20.67,-47.87 581.44,-230.22 1134.7,-134.62 1759.34,-26.76 920.79,159 1999.15,345.21 3546.66,-469.28 10.09,-5.27 22.44,-5.88 33.44,-0.38 18.2,9 25.73,31 16.8,49.22 -2,3.79 -642.17,1333.55 -2104.19,1649.7 -641.49,138.71 -1260.18,134.1 -1782.75,52.62 -665.98,-103.69 -1178.05,-333.45 -1384.78,-551.27z"/><path class="fil12" d="M11317.34 2080.79c19.85,-4.32 39.47,8.33 43.79,28.17 4.3,19.91 -8.32,39.53 -28.17,43.76 -340.32,73.98 -643.98,113.51 -971.04,75.02 -326.69,-38.29 -675.18,-154.33 -1104.15,-391.08 -409.37,-225.82 -1141.05,-480.04 -1827.89,-417.38 -470.18,42.81 -919.38,235.05 -1227.86,688.86 -11.38,16.73 -34.2,21.11 -50.93,9.74 -16.79,-11.44 -21.18,-34.2 -9.8,-50.99 322.9,-475.07 791.65,-676.15 1281.89,-720.74 703.89,-64.22 1451.83,195.35 1869.96,426 420.06,231.7 759.85,345.21 1077.18,382.46 317.18,37.23 613.85,-1.5 947.02,-73.81z"/><path class="fil13" d="M4485.55 14206.45c0.15,-30.45 25.06,-54.93 55.52,-54.64 30.47,0.17 54.93,25.06 54.72,55.46l-13.61 1526.76c-0.3,30.49 -25.06,55 -55.52,54.79 -30.41,-0.3 -54.93,-25.14 -54.64,-55.61l13.53 -1526.76z"/><path class="fil13" d="M12084.47 14206.45c0.15,-30.45 25.14,-54.93 55.54,-54.64 30.47,0.17 54.93,25.06 54.64,55.46l-13.46 1526.76c-0.23,30.49 -25.12,55 -55.61,54.79 -30.41,-0.3 -54.93,-25.14 -54.7,-55.61l13.59 -1526.76z"/><path class="fil14" d="M7564.57 8017.43c-20.29,0 -36.88,-16.58 -36.88,-36.87 0,-20.44 16.59,-36.87 36.88,-36.87l1649.18 0c20.3,0 36.79,16.44 36.79,36.87 0,20.29 -16.5,36.87 -36.79,36.87l-1649.18 0z"/></g></g></svg>