<svg viewBox="0 0 32 32" xml:space="preserve" xmlns="http://www.w3.org/2000/svg" enable-background="new 0 0 32 32"><path d="M26 4.1V3c0-1.7-1.3-3-3-3H9C7.3 0 6 1.3 6 3v1.1C3.7 4.6 2 6.6 2 9v14c0 2.8 2.2 5 5 5h18c2.8 0 5-2.2 5-5V9c0-2.4-1.7-4.4-4-4.9zM28 9v.4l-2 1.2V6.2c1.2.4 2 1.5 2 2.8zM8 3c0-.6.4-1 1-1h14c.6 0 1 .4 1 1v8.9l-8 4.9-8-4.9V3zM6 6.2v4.5L4 9.4V9c0-1.3.8-2.4 2-2.8z" fill="#383838" class="fill-000000"></path><path d="M11 6h7c.6 0 1-.4 1-1s-.4-1-1-1h-7c-.6 0-1 .4-1 1s.4 1 1 1zM11 10h3c.6 0 1-.4 1-1s-.4-1-1-1h-3c-.6 0-1 .4-1 1s.4 1 1 1z" fill="#383838" class="fill-000000"></path></svg>